<?xml version="1.0" encoding="UTF-8"?>
<svg version="1.1" xmlns="http://www.w3.org/2000/svg" width="436" height="461">
<path d="M0 0 C143.88 0 287.76 0 436 0 C436 152.13 436 304.26 436 461 C292.12 461 148.24 461 0 461 C0 308.87 0 156.74 0 0 Z " fill="#060912" transform="translate(0,0)"/>
<path d="M0 0 C2.81741624 0.54101786 5.65714494 0.90948011 8.49755859 1.30908203 C13.26786245 2.11749487 17.57540349 3.54537989 22.07568359 5.30126953 C25.2224734 6.47916626 28.39814874 7.42803353 31.62255859 8.37158203 C36.01774422 9.69843052 39.97022682 11.20815945 44.00146484 13.38720703 C46.14107733 14.4764643 48.30834331 15.28950572 50.56005859 16.12158203 C56.3860268 18.38118652 61.65638985 21.50714274 67.02880859 24.66455078 C68.63937229 25.61054048 70.26441514 26.53626031 71.93505859 27.37158203 C71.93505859 28.03158203 71.93505859 28.69158203 71.93505859 29.37158203 C73.91505859 30.03158203 75.89505859 30.69158203 77.93505859 31.37158203 C77.93505859 32.03158203 77.93505859 32.69158203 77.93505859 33.37158203 C78.62728516 33.59201172 79.31951172 33.81244141 80.03271484 34.03955078 C83.65833299 35.70352896 86.40749025 38.07274114 89.37255859 40.68408203 C90.47525016 41.638709 91.57811391 42.59313713 92.68115234 43.54736328 C93.48891113 44.25179565 93.48891113 44.25179565 94.31298828 44.97045898 C95.91443868 46.35377082 97.53530787 47.70985695 99.16552734 49.05908203 C101.93131637 51.36845735 104.49671175 53.71808693 106.93505859 56.37158203 C106.93505859 57.03158203 106.93505859 57.69158203 106.93505859 58.37158203 C107.92505859 58.70158203 108.91505859 59.03158203 109.93505859 59.37158203 C112.70570441 62.34053583 115.16160845 65.56292213 117.66601562 68.75830078 C118.9082365 70.33748423 120.16951726 71.90161531 121.43115234 73.46533203 C134.17242562 89.41120597 143.80551263 107.51452735 150.63037109 126.72314453 C151.39415589 128.85899783 152.18797905 130.9853121 153.05224609 133.08251953 C158.02034966 145.29096007 160.2823095 159.04072357 160.31005859 172.18408203 C160.31166992 172.8937915 160.31328125 173.60350098 160.31494141 174.3347168 C160.17087565 181.07619364 158.89942653 187.30234775 155.49755859 193.18408203 C155.08634766 193.91240234 154.67513672 194.64072266 154.25146484 195.39111328 C152.95871695 197.33598919 151.71773584 198.86462553 149.93505859 200.37158203 C149.27505859 200.37158203 148.61505859 200.37158203 147.93505859 200.37158203 C147.93505859 201.03158203 147.93505859 201.69158203 147.93505859 202.37158203 C127.74190197 214.70789426 101.99998983 215.72448735 79.0705719 219.29786682 C70.6493998 220.61128149 62.24715286 221.97055936 53.87255859 223.55908203 C44.91903895 225.25582099 35.92791683 226.61154247 26.90551758 227.88989258 C18.5890529 229.07905437 10.32688152 230.50055515 2.06002808 231.98916626 C-1.25811704 232.58630944 -4.57759041 233.17588465 -7.89697266 233.76611328 C-9.83926758 234.11162231 -9.83926758 234.11162231 -11.82080078 234.46411133 C-29.09372318 237.53166221 -46.38556939 240.47623364 -63.6973114 243.31666565 C-67.44023109 243.93167928 -71.17968629 244.56272412 -74.91650391 245.21386719 C-76.12777954 245.42249138 -76.12777954 245.42249138 -77.36352539 245.6353302 C-78.91061899 245.90216827 -80.45706024 246.17282836 -82.00268555 246.44804382 C-86.07230341 247.14552568 -89.93688264 247.50931943 -94.06494141 247.37158203 C-95.53084629 243.97627362 -96.45569735 240.84576592 -97.02978516 237.19580078 C-97.26773804 235.71889771 -97.26773804 235.71889771 -97.51049805 234.2121582 C-97.67283936 233.17164307 -97.83518066 232.13112793 -98.00244141 231.05908203 C-98.35270369 228.88178913 -98.70426754 226.70470522 -99.05712891 224.52783203 C-99.22825195 223.46951172 -99.399375 222.41119141 -99.57568359 221.32080078 C-100.20061624 217.55374172 -100.90349018 213.80838735 -101.62744141 210.05908203 C-102.77168347 204.07381587 -103.79471893 198.07702676 -104.75244141 192.05908203 C-104.88400635 191.23947998 -105.01557129 190.41987793 -105.15112305 189.57543945 C-105.63653869 186.47720151 -106.06494141 183.51280254 -106.06494141 180.37158203 C-105.42169922 180.29641357 -104.77845703 180.22124512 -104.11572266 180.14379883 C-83.5680233 178.84289503 -83.5680233 178.84289503 -64.06494141 173.37158203 C-62.19528644 173.06602353 -60.31855159 172.80362131 -58.43994141 172.55908203 C-52.17318295 171.69079622 -45.93054341 170.72364595 -39.68994141 169.68408203 C-38.71009277 169.52149902 -37.73024414 169.35891602 -36.72070312 169.19140625 C-30.73521377 168.18730058 -24.75881563 167.14187566 -18.78671265 166.06135559 C-15.2620742 165.42394558 -11.73632341 164.79278217 -8.21063232 164.16122437 C-6.47242725 163.84774435 -4.73481242 163.53097032 -2.99786377 163.21060181 C8.00231347 161.18215026 18.74601591 159.77826219 29.93505859 159.37158203 C29.93505859 158.71158203 29.93505859 158.05158203 29.93505859 157.37158203 C30.95229004 157.23582764 31.96952148 157.10007324 33.01757812 156.96020508 C36.86143582 156.44572145 40.70427484 155.92393261 44.546875 155.40014648 C46.19700431 155.17620723 47.84738916 154.95414142 49.49804688 154.73413086 C58.84913718 153.48637139 68.04715768 152.06951513 77.24316406 149.93334961 C79.93505859 149.37158203 79.93505859 149.37158203 82.93505859 149.37158203 C80.88371726 143.51953212 78.76903498 137.89783599 75.93505859 132.37158203 C75.93505859 131.71158203 75.93505859 131.05158203 75.93505859 130.37158203 C75.27505859 130.37158203 74.61505859 130.37158203 73.93505859 130.37158203 C73.62052734 129.70771484 73.30599609 129.04384766 72.98193359 128.35986328 C70.15907816 122.53559831 67.35165747 117.78818091 62.74755859 113.18408203 C60.28389582 110.72041926 58.03032515 108.18747873 55.74755859 105.55908203 C43.43484281 91.86928619 27.79484168 83.17200851 10.93505859 76.37158203 C10.14873047 76.03126953 9.36240234 75.69095703 8.55224609 75.34033203 C4.64670442 73.89469869 0.64835687 72.86487504 -3.37744141 71.80908203 C-4.1940625 71.58800781 -5.01068359 71.36693359 -5.85205078 71.13916016 C-15.45794792 68.60565262 -24.53625599 68.18951168 -34.43994141 68.18408203 C-35.60783203 68.17183594 -36.77572266 68.15958984 -37.97900391 68.14697266 C-44.94718784 68.13525486 -51.30299848 68.70896758 -58.06494141 70.37158203 C-59.36957513 70.65828518 -60.67425944 70.94475826 -61.97900391 71.23095703 C-69.03012841 72.92322691 -75.88378129 74.85878266 -82.68994141 77.37158203 C-83.34043457 77.60844727 -83.99092773 77.8453125 -84.66113281 78.08935547 C-88.88425384 79.70578767 -92.32774625 81.86050077 -96.06494141 84.37158203 C-97.74136719 85.06380859 -97.74136719 85.06380859 -99.45166016 85.77001953 C-103.75406344 87.67703072 -107.16514231 90.13871883 -110.87744141 92.99658203 C-111.92629517 93.794552 -111.92629517 93.794552 -112.99633789 94.60864258 C-118.6125474 98.92596186 -123.93661739 103.48245223 -129.06494141 108.37158203 C-129.67337891 108.91685547 -130.28181641 109.46212891 -130.90869141 110.02392578 C-137.43644055 116.09176532 -143.33112844 124.25202051 -147.06494141 132.37158203 C-147.72494141 132.37158203 -148.38494141 132.37158203 -149.06494141 132.37158203 C-149.29181641 133.15533203 -149.51869141 133.93908203 -149.75244141 134.74658203 C-151.1746347 138.67454446 -152.98809629 142.24511753 -154.88916016 145.95751953 C-156.22161927 148.69326615 -157.21913447 151.44970354 -158.06494141 154.37158203 C-158.72494141 154.37158203 -159.38494141 154.37158203 -160.06494141 154.37158203 C-160.18611328 155.02384766 -160.30728516 155.67611328 -160.43212891 156.34814453 C-160.59970703 157.22212891 -160.76728516 158.09611328 -160.93994141 158.99658203 C-161.10236328 159.85509766 -161.26478516 160.71361328 -161.43212891 161.59814453 C-162.06494141 164.37158203 -162.06494141 164.37158203 -163.03369141 167.20361328 C-169.90480077 188.31145303 -168.67377749 213.09256823 -164.72119141 234.62548828 C-164.06494141 238.37158203 -164.06494141 238.37158203 -164.06494141 242.37158203 C-163.40494141 242.37158203 -162.74494141 242.37158203 -162.06494141 242.37158203 C-161.68982422 243.56654297 -161.31470703 244.76150391 -160.92822266 245.99267578 C-157.42041066 257.07461471 -157.42041066 257.07461471 -152.16650391 267.40283203 C-150.23869682 270.84827448 -149.16328976 274.59433524 -148.06494141 278.37158203 C-147.40494141 278.37158203 -146.74494141 278.37158203 -146.06494141 278.37158203 C-145.73494141 279.69158203 -145.40494141 281.01158203 -145.06494141 282.37158203 C-144.40494141 282.37158203 -143.74494141 282.37158203 -143.06494141 282.37158203 C-141.8119101 283.92510046 -140.63851194 285.54309127 -139.50244141 287.18408203 C-130.92595906 299.36118942 -130.92595906 299.36118942 -119.82666016 309.11376953 C-118.06494141 310.37158203 -118.06494141 310.37158203 -115.62744141 312.87158203 C-112.7294087 315.69893101 -109.64689221 317.76270543 -106.24853516 319.94189453 C-104.06494141 321.37158203 -104.06494141 321.37158203 -101.92822266 323.00830078 C-99.9568911 324.45063771 -98.44953474 324.94576179 -96.06494141 325.37158203 C-96.06494141 326.03158203 -96.06494141 326.69158203 -96.06494141 327.37158203 C-95.22962891 327.62681641 -95.22962891 327.62681641 -94.37744141 327.88720703 C-90.471892 329.12748286 -86.80136358 330.42351198 -83.18994141 332.37158203 C-74.657102 336.79349894 -65.06869354 338.022691 -55.62744141 339.05908203 C-54.49290527 339.18428223 -53.35836914 339.30948242 -52.18945312 339.43847656 C-29.30961545 341.80335924 -7.79379332 340.14590038 13.93505859 332.37158203 C14.80904297 332.07638672 15.68302734 331.78119141 16.58349609 331.47705078 C28.99089093 326.96339718 40.60025281 319.46586504 50.93505859 311.37158203 C51.78970703 310.72060547 52.64435547 310.06962891 53.52490234 309.39892578 C60.19202383 304.16117248 66.10418127 298.34642822 71.98486328 292.24829102 C72.5987793 291.61737549 73.21269531 290.98645996 73.84521484 290.33642578 C74.66711304 289.4797229 74.66711304 289.4797229 75.50561523 288.60571289 C76.93505859 287.37158203 76.93505859 287.37158203 78.93505859 287.37158203 C80.09753758 288.77339492 81.25567194 290.17902895 82.39208984 291.60205078 C84.63902562 294.17891637 87.21841256 296.29630871 89.81787109 298.50830078 C92.72089461 301.06317572 95.39656596 303.81877001 98.10302734 306.57861328 C100.05585401 308.55244541 100.05585401 308.55244541 102.93505859 310.74658203 C103.59505859 311.28283203 104.25505859 311.81908203 104.93505859 312.37158203 C104.93505859 313.03158203 104.93505859 313.69158203 104.93505859 314.37158203 C105.77037109 314.71189453 105.77037109 314.71189453 106.62255859 315.05908203 C109.60710608 316.75301439 111.56159905 318.88772902 113.93505859 321.37158203 C118.41143062 325.96603582 123.01419062 330.25412108 127.93505859 334.37158203 C127.42787983 338.63905589 126.22492695 340.57858805 123.18896484 343.57861328 C122.43421875 344.32949219 121.67947266 345.08037109 120.90185547 345.85400391 C120.1084375 346.62292969 119.31501953 347.39185547 118.49755859 348.18408203 C117.31323242 349.36647461 117.31323242 349.36647461 116.10498047 350.57275391 C110.215781 356.37158203 110.215781 356.37158203 107.93505859 356.37158203 C107.93505859 357.03158203 107.93505859 357.69158203 107.93505859 358.37158203 C102.45886812 363.37158203 102.45886812 363.37158203 99.93505859 363.37158203 C99.93505859 364.03158203 99.93505859 364.69158203 99.93505859 365.37158203 C97.53161557 367.18999626 95.12616402 368.88851683 92.62255859 370.55908203 C91.89649414 371.05085938 91.17042969 371.54263672 90.42236328 372.04931641 C85.39644221 375.43842624 80.3189563 378.73562073 75.16943359 381.93408203 C72.9169 383.34145028 72.9169 383.34145028 70.83349609 384.97314453 C68.67628178 386.56220363 66.42412981 387.49759937 63.95068359 388.50048828 C61.75067551 389.45126697 59.6755351 390.55798654 57.56005859 391.68408203 C29.32280991 405.86639942 -4.33405947 411.84037459 -35.68994141 411.68408203 C-36.47386261 411.68192688 -37.25778381 411.67977173 -38.06546021 411.67755127 C-57.90164665 411.59042565 -75.93218157 408.98426508 -94.89233398 403.04345703 C-96.86990478 402.43189676 -98.86144194 401.86596899 -100.85400391 401.30517578 C-103.64836579 400.49270316 -106.30542496 399.58256869 -109.00244141 398.49658203 C-109.77458984 398.18978516 -110.54673828 397.88298828 -111.34228516 397.56689453 C-114.2733513 396.28008501 -117.11888069 394.86854707 -119.97485352 393.42431641 C-121.96142523 392.423721 -123.95765397 391.44670938 -125.95947266 390.47705078 C-140.15825939 383.55657358 -152.56668127 374.98265265 -165.06494141 365.37158203 C-166.04720703 364.63294922 -167.02947266 363.89431641 -168.04150391 363.13330078 C-168.70923828 362.55193359 -169.37697266 361.97056641 -170.06494141 361.37158203 C-170.06494141 360.71158203 -170.06494141 360.05158203 -170.06494141 359.37158203 C-170.63083984 359.14470703 -171.19673828 358.91783203 -171.77978516 358.68408203 C-174.69517079 357.00960413 -176.44032168 354.91767065 -178.62744141 352.37158203 C-181.05566343 349.55435311 -182.95962274 347.44179448 -186.06494141 345.37158203 C-187.07677093 343.71207042 -188.07540677 342.0444834 -189.06494141 340.37158203 C-190.44677253 338.77819149 -191.8659579 337.21666074 -193.31494141 335.68408203 C-210.06494141 317.35697164 -210.06494141 317.35697164 -210.06494141 309.37158203 C-211.05494141 309.04158203 -212.04494141 308.71158203 -213.06494141 308.37158203 C-214.1822642 306.03563251 -215.11759801 303.79379365 -216.00244141 301.37158203 C-216.52980689 299.98958236 -217.05844775 298.60806867 -217.58837891 297.22705078 C-217.84200195 296.55851074 -218.095625 295.8899707 -218.35693359 295.20117188 C-219.2106028 292.99517291 -220.14840862 290.8371582 -221.12744141 288.68408203 C-221.44068359 287.98283203 -221.75392578 287.28158203 -222.07666016 286.55908203 C-222.77563093 285.01195305 -223.48790403 283.47080157 -224.20947266 281.93408203 C-228.7481526 271.79049258 -231.48417559 261.14794985 -234.06494141 250.37158203 C-234.28102051 249.49646973 -234.49709961 248.62135742 -234.71972656 247.71972656 C-241.06828463 220.92871067 -240.8618879 189.25636506 -234.5390625 162.46044922 C-233.87065761 159.51561286 -233.43818703 156.54598796 -233.00244141 153.55908203 C-232.15256708 148.34498818 -230.72730532 143.38083862 -229.06494141 138.37158203 C-228.40494141 138.37158203 -227.74494141 138.37158203 -227.06494141 138.37158203 C-226.96181641 137.54658203 -226.85869141 136.72158203 -226.75244141 135.87158203 C-225.9537067 131.80529625 -224.58523092 128.21156211 -223.06494141 124.37158203 C-222.49963918 122.87263585 -221.93703394 121.37266912 -221.37744141 119.87158203 C-220.94431641 118.71658203 -220.51119141 117.56158203 -220.06494141 116.37158203 C-219.40494141 116.37158203 -218.74494141 116.37158203 -218.06494141 116.37158203 C-217.73494141 114.39158203 -217.40494141 112.41158203 -217.06494141 110.37158203 C-216.40494141 110.37158203 -215.74494141 110.37158203 -215.06494141 110.37158203 C-214.81744141 109.36353516 -214.56994141 108.35548828 -214.31494141 107.31689453 C-213.1550834 103.27969646 -211.26149366 99.80722918 -209.06494141 96.24658203 C-208.66758789 95.59625 -208.27023438 94.94591797 -207.86083984 94.27587891 C-195.57248737 74.54149582 -178.85612436 55.11204636 -160.06494141 41.37158203 C-159.11748047 40.64197266 -158.17001953 39.91236328 -157.19384766 39.16064453 C-151.72222572 34.96457267 -146.23030757 31.09592731 -140.25244141 27.65673828 C-138.3168893 26.51960142 -136.51207807 25.30396509 -134.68994141 23.99658203 C-132.06494141 22.37158203 -132.06494141 22.37158203 -128.06494141 22.37158203 C-128.06494141 21.71158203 -128.06494141 21.05158203 -128.06494141 20.37158203 C-126.4416727 19.70071083 -124.81626563 19.03501174 -123.18994141 18.37158203 C-122.28501953 18.00033203 -121.38009766 17.62908203 -120.44775391 17.24658203 C-118.06494141 16.37158203 -118.06494141 16.37158203 -116.06494141 16.37158203 C-116.06494141 15.71158203 -116.06494141 15.05158203 -116.06494141 14.37158203 C-104.25141256 9.52608025 -92.51525955 5.25618831 -80.06494141 2.37158203 C-78.59299316 2.02667725 -78.59299316 2.02667725 -77.09130859 1.67480469 C-51.84459575 -4.03217341 -25.47288983 -5.07301615 0 0 Z " fill="#FBFBFB" transform="translate(250.06494140625,29.62841796875)"/>
<path d="M0 0 C13.2 0 26.4 0 40 0 C40 12.87 40 25.74 40 39 C26.8 39 13.6 39 0 39 C0 26.13 0 13.26 0 0 Z " fill="#06C0DF" transform="translate(376,28)"/>
<path d="M0 0 C12.87 0 25.74 0 39 0 C39 5.28 39 10.56 39 16 C26.13 16 13.26 16 0 16 C0 10.72 0 5.44 0 0 Z " fill="#03BEDD" transform="translate(327,0)"/>
<path d="M0 0 C3.3 0 6.6 0 10 0 C10 13.2 10 26.4 10 40 C6.7 40 3.4 40 0 40 C0 26.8 0 13.6 0 0 Z " fill="#03C1E3" transform="translate(426,78)"/>
<path d="M0 0 C13.2 0 26.4 0 40 0 C40 12.87 40 25.74 40 39 C26.8 39 13.6 39 0 39 C0 26.13 0 13.26 0 0 Z M2 2 C1.979375 7.589375 1.95875 13.17875 1.9375 18.9375 C1.928396 20.70343506 1.91929199 22.46937012 1.90991211 24.28881836 C1.90699286 25.68082605 1.90444433 27.07283459 1.90234375 28.46484375 C1.89722778 29.19384888 1.89211182 29.922854 1.88684082 30.6739502 C1.88652989 32.44970076 1.93771485 34.22534208 2 36 C3.14588101 37.37317088 3.14588101 37.37317088 6.23461914 37.11352539 C7.66814126 37.11336631 9.10166912 37.10767407 10.53515625 37.09765625 C11.28840683 37.0962413 12.04165741 37.09482635 12.81773376 37.09336853 C15.2326956 37.08775376 17.64756601 37.07519883 20.0625 37.0625 C21.69596221 37.0574869 23.32942586 37.05292366 24.96289062 37.04882812 C28.97529585 37.03777954 32.98763241 37.02050506 37 37 C38.02535334 29.45113876 38.11682201 22.04786904 38.0625 14.4375 C38.041875 10.333125 38.02125 6.22875 38 2 C26.12 2 14.24 2 2 2 Z " fill="#33A3BB" transform="translate(376,28)"/>
<path d="M0 0 C0.99 0 1.98 0 3 0 C3 3.96 3 7.92 3 12 C4.79566406 12.06058594 6.59132813 12.12117187 8.44140625 12.18359375 C10.81511112 12.26803384 13.18880867 12.3526801 15.5625 12.4375 C17.33463867 12.49647461 17.33463867 12.49647461 19.14257812 12.55664062 C24.83013123 12.7637504 30.38995814 13.01968432 36 14 C36 9.38 36 4.76 36 0 C36.99 0 37.98 0 39 0 C39 5.28 39 10.56 39 16 C26.13 16 13.26 16 0 16 C0 10.72 0 5.44 0 0 Z " fill="#29B2CB" transform="translate(327,0)"/>
<path d="M0 0 C3.3 0 6.6 0 10 0 C10 5.28 10 10.56 10 16 C6.7 16 3.4 16 0 16 C0 10.72 0 5.44 0 0 Z " fill="#17B7D3" transform="translate(426,0)"/>
<path d="M0 0 C0.66 0 1.32 0 2 0 C2.19356435 4.42864524 2.37206619 8.85757513 2.53710938 13.28735352 C2.59522525 14.79174756 2.65733293 16.29599324 2.72363281 17.80004883 C2.81865548 19.97189276 2.89893264 22.1438792 2.9765625 24.31640625 C3.02893066 25.62037354 3.08129883 26.92434082 3.13525391 28.26782227 C2.98834755 32.32153623 2.38586631 35.20794057 1 39 C-2.27891925 40.63945963 -5.90613534 40.12030178 -9.5078125 40.09765625 C-10.76874222 40.09553383 -10.76874222 40.09553383 -12.05514526 40.09336853 C-14.74513275 40.08776237 -17.43503759 40.07520886 -20.125 40.0625 C-21.94661338 40.05748579 -23.76822807 40.05292275 -25.58984375 40.04882812 C-30.05992777 40.03779094 -34.52994986 40.0205222 -39 40 C-39 39.34 -39 38.68 -39 38 C-26.13 38 -13.26 38 0 38 C0 25.46 0 12.92 0 0 Z " fill="#001828" transform="translate(416,30)"/>
<path d="M0 0 C3.3 0 6.6 0 10 0 C10 0.66 10 1.32 10 2 C7.69 2.33 5.38 2.66 3 3 C2.67 14.22 2.34 25.44 2 37 C5.96 37.495 5.96 37.495 10 38 C10 38.66 10 39.32 10 40 C6.7 40 3.4 40 0 40 C0 26.8 0 13.6 0 0 Z " fill="#3399B3" transform="translate(426,78)"/>
<path d="M0 0 C0 0.99 0 1.98 0 3 C1.1490712 4.2981424 1.1490712 4.2981424 4 5 C4 5.66 4 6.32 4 7 C2.02 7.66 0.04 8.32 -2 9 C-2 10.32 -2 11.64 -2 13 C-6.1196377 14.29243536 -9.66831683 15.26252625 -14 15 C-9.59156563 9.70987876 -4.92440206 4.81191572 0 0 Z " fill="#0F121A" transform="translate(377,368)"/>
<path d="M0 0 C-1.65 0.66 -3.3 1.32 -5 2 C-5 2.66 -5 3.32 -5 4 C-9.29 4.66 -13.58 5.32 -18 6 C-18 6.33 -18 6.66 -18 7 C-19.65 7 -21.3 7 -23 7 C-23 6.34 -23 5.68 -23 5 C-25.64 4.67 -28.28 4.34 -31 4 C-31 3.67 -31 3.34 -31 3 C-26.58525431 2.29976385 -22.16797838 1.61701647 -17.75 0.9375 C-16.49574219 0.73833984 -15.24148438 0.53917969 -13.94921875 0.33398438 C-12.74394531 0.15029297 -11.53867187 -0.03339844 -10.296875 -0.22265625 C-8.63156738 -0.48187866 -8.63156738 -0.48187866 -6.93261719 -0.74633789 C-4.25129009 -0.9782642 -2.51898933 -0.86020806 0 0 Z " fill="#D6D7D7" transform="translate(311,184)"/>
<path d="M0 0 C0.33 0 0.66 0 1 0 C1.33 4.29 1.66 8.58 2 13 C2.33 13 2.66 13 3 13 C3.02714735 15.22909871 3.04646254 17.45829367 3.0625 19.6875 C3.07410156 20.92886719 3.08570313 22.17023438 3.09765625 23.44921875 C3.01478673 26.46235454 2.70839449 29.08275339 2 32 C3.98 32 5.96 32 8 32 C8 32.99 8 33.98 8 35 C4.04 34.505 4.04 34.505 0 34 C0 22.78 0 11.56 0 0 Z " fill="#13B8D7" transform="translate(428,81)"/>
<path d="M0 0 C0.515625 0.2475 1.03125 0.495 1.5625 0.75 C0.49 1.3275 -0.5825 1.905 -1.6875 2.5 C-4.75620931 4.23583557 -6.98474971 6.2064071 -9.4375 8.75 C-10.0975 8.75 -10.7575 8.75 -11.4375 8.75 C-12.0975 9.41 -12.7575 10.07 -13.4375 10.75 C-13.4375 10.09 -13.4375 9.43 -13.4375 8.75 C-15.0875 9.08 -16.7375 9.41 -18.4375 9.75 C-15.60696617 6.60496241 -13.36779352 5.2124348 -9.4375 3.75 C-8.24329677 3.03186427 -7.05611755 2.30196035 -5.875 1.5625 C-2.4375 -0.25 -2.4375 -0.25 0 0 Z " fill="#2C2C32" transform="translate(164.4375,108.25)"/>
<path d="M0 0 C-0.33 0.99 -0.66 1.98 -1 3 C-1.66 3 -2.32 3 -3 3 C-4.0064275 4.66279327 -5.00585407 6.32983484 -6 8 C-9 10 -9 10 -11.6875 9.625 C-12.450625 9.41875 -13.21375 9.2125 -14 9 C-10.73787201 5.33010602 -5.2007339 0 0 0 Z " fill="#2E3036" transform="translate(336,405)"/>
<path d="M0 0 C0.33 0.66 0.66 1.32 1 2 C1.66 2 2.32 2 3 2 C3.33 2.99 3.66 3.98 4 5 C3.01 5 2.02 5 1 5 C1 6.32 1 7.64 1 9 C0.34 9 -0.32 9 -1 9 C-1.66 10.32 -2.32 11.64 -3 13 C-3.66 12.34 -4.32 11.68 -5 11 C-1.85714286 3.57142857 -1.85714286 3.57142857 0 0 Z " fill="#1E2028" transform="translate(100,164)"/>
<path d="M0 0 C2.31 0 4.62 0 7 0 C7 0.66 7 1.32 7 2 C6.19175781 2.33644531 5.38351562 2.67289062 4.55078125 3.01953125 C1.85652772 4.69086516 1.85652772 4.69086516 1.49365234 7.02099609 C1.28175527 9.58489909 1.20443707 12.11494699 1.1875 14.6875 C1.16236328 15.58017578 1.13722656 16.47285156 1.11132812 17.39257812 C1.05242662 19.59549439 1.01617246 21.79642319 1 24 C0.67 24 0.34 24 0 24 C0 16.08 0 8.16 0 0 Z " fill="#14C4E3" transform="translate(429,80)"/>
<path d="M0 0 C0.99 0 1.98 0 3 0 C3 0.66 3 1.32 3 2 C4.32 2 5.64 2 7 2 C7.061875 2.556875 7.12375 3.11375 7.1875 3.6875 C8.33373872 6.94987173 10.49390197 8.68667874 13 11 C12.01 11.495 12.01 11.495 11 12 C9.72799029 10.89718873 8.45744147 9.79269231 7.1875 8.6875 C6.47980469 8.07261719 5.77210938 7.45773438 5.04296875 6.82421875 C1.3771204 3.55088953 1.3771204 3.55088953 0 2 C0 1.34 0 0.68 0 0 Z " fill="#212226" transform="translate(344,73)"/>
<path d="M0 0 C-1.65 0.66 -3.3 1.32 -5 2 C-5 2.66 -5 3.32 -5 4 C-8.3 4 -11.6 4 -15 4 C-15 3.01 -15 2.02 -15 1 C-13.25215171 0.63536268 -11.50159498 0.2836922 -9.75 -0.0625 C-8.28820312 -0.35833984 -8.28820312 -0.35833984 -6.796875 -0.66015625 C-4.131881 -0.98397535 -2.51128277 -0.85503199 0 0 Z " fill="#DFDFE2" transform="translate(311,184)"/>
<path d="M0 0 C0.80544481 2.7176519 1.03573787 3.8602974 0.3125 6.6875 C-1 9 -1 9 -2.875 9.625 C-3.57625 9.74875 -4.2775 9.8725 -5 10 C-7.2072358 11.48800372 -7.2072358 11.48800372 -9 13 C-7.50923566 9.7173068 -5.61379679 7.06922559 -3.375 4.25 C-2.74335937 3.45078125 -2.11171875 2.6515625 -1.4609375 1.828125 C-0.97882813 1.22484375 -0.49671875 0.6215625 0 0 Z " fill="#313337" transform="translate(116,142)"/>
<path d="M0 0 C-0.639375 0.28875 -1.27875 0.5775 -1.9375 0.875 C-4.15206079 1.82823451 -4.15206079 1.82823451 -5 4 C-6.99954746 4.04254356 -9.00041636 4.04080783 -11 4 C-11.33 3.67 -11.66 3.34 -12 3 C-14.33297433 2.95907063 -16.66705225 2.95758277 -19 3 C-19 2.67 -19 2.34 -19 2 C-12.56971459 0.67611771 -6.5705166 -0.24794402 0 0 Z " fill="#37383C" transform="translate(360,244)"/>
<path d="M0 0 C0.66 0 1.32 0 2 0 C3.33257403 11.52164009 3.33257403 11.52164009 2 17 C1.01 16.67 0.02 16.34 -1 16 C-0.67 10.72 -0.34 5.44 0 0 Z " fill="#021F33" transform="translate(366,0)"/>
<path d="M0 0 C1.7866789 2.68001835 2.9322137 5.03128744 4.125 8 C4.47820313 8.86625 4.83140625 9.7325 5.1953125 10.625 C6 13 6 13 6 16 C0.05446359 10.20691325 0.05446359 10.20691325 -0.09765625 6.8359375 C-0.08605469 6.02382813 -0.07445313 5.21171875 -0.0625 4.375 C-0.05347656 3.55773437 -0.04445313 2.74046875 -0.03515625 1.8984375 C-0.02355469 1.27195312 -0.01195313 0.64546875 0 0 Z " fill="#3A3A3E" transform="translate(25,309)"/>
<path d="M0 0 C2.46751239 3.70126859 2.30721156 5.62223532 2 10 C1 12.4375 1 12.4375 0 14 C-2.47120419 6.12303665 -2.47120419 6.12303665 -2 2 C-1.34 1.34 -0.68 0.68 0 0 Z " fill="#E1E3E3" transform="translate(83,198)"/>
<path d="M0 0 C0.99 0.33 1.98 0.66 3 1 C3 1.66 3 2.32 3 3 C2.34 3 1.68 3 1 3 C0.67 3.66 0.34 4.32 0 5 C-1.95737671 7.57549567 -2.93496238 7.98597228 -6.1875 8.6875 C-7.5796875 8.8421875 -7.5796875 8.8421875 -9 9 C-8.67 8.34 -8.34 7.68 -8 7 C-7.34 7 -6.68 7 -6 7 C-6 6.34 -6 5.68 -6 5 C-3.1875 2.3125 -3.1875 2.3125 0 0 Z " fill="#2A2A2F" transform="translate(356,388)"/>
<path d="M0 0 C0.66 0.33 1.32 0.66 2 1 C0.6062718 5.43458973 -1.60582235 7.87378374 -5 11 C-5.75 9.375 -5.75 9.375 -6 7 C-2.82191781 1.4109589 -2.82191781 1.4109589 0 0 Z " fill="#EBEEF1" transform="translate(111,144)"/>
<path d="M0 0 C0.66 0 1.32 0 2 0 C1.67 0.99 1.34 1.98 1 3 C0.67 2.01 0.34 1.02 0 0 Z M-6 1 C-3.69 1.66 -1.38 2.32 1 3 C1.33 4.32 1.66 5.64 2 7 C3.32 6.34 4.64 5.68 6 5 C5.34 6.65 4.68 8.3 4 10 C2.8944811 9.06409496 1.79064547 8.12620142 0.6875 7.1875 C0.07261719 6.66542969 -0.54226563 6.14335937 -1.17578125 5.60546875 C-2.85424679 4.12827531 -4.43882034 2.59960869 -6 1 Z " fill="#29292F" transform="translate(366,347)"/>
<path d="M0 0 C3.63 1.98 7.26 3.96 11 6 C10.34 6.66 9.68 7.32 9 8 C6.0625 7.9375 6.0625 7.9375 3 7 C1.14766715 4.59196729 0 3.07258075 0 0 Z " fill="#15171C" transform="translate(103,408)"/>
<path d="M0 0 C0.66 0.99 1.32 1.98 2 3 C0.02 5.97 -1.96 8.94 -4 12 C-4.66 10.68 -5.32 9.36 -6 8 C-4.02 5.36 -2.04 2.72 0 0 Z " fill="#111319" transform="translate(46,114)"/>
<path d="M0 0 C0.33 0.99 0.66 1.98 1 3 C3.97 3.495 3.97 3.495 7 4 C7.625 5.875 7.625 5.875 8 8 C7.34 8.66 6.68 9.32 6 10 C3.03 7.36 0.06 4.72 -3 2 C-2.01 1.34 -1.02 0.68 0 0 Z " fill="#1B1C21" transform="translate(336,321)"/>
<path d="M0 0 C5.42039575 -0.40652968 9.07015675 0.96006486 14 3 C13.67 3.99 13.34 4.98 13 6 C11.58208592 5.54554036 10.16571954 5.08625056 8.75 4.625 C7.96109375 4.36976562 7.1721875 4.11453125 6.359375 3.8515625 C4.13372042 3.04826333 2.09068328 2.10288338 0 1 C0 0.67 0 0.34 0 0 Z " fill="#37373C" transform="translate(290,41)"/>
<path d="M0 0 C0 0.33 0 0.66 0 1 C-2.31 1.33 -4.62 1.66 -7 2 C-7 2.66 -7 3.32 -7 4 C-11.29 3.67 -15.58 3.34 -20 3 C-20 2.67 -20 2.34 -20 2 C-13.25846717 0.74158054 -6.86515862 -0.26404456 0 0 Z " fill="#515256" transform="translate(336,248)"/>
<path d="M0 0 C0 0.66 0 1.32 0 2 C-0.66 2 -1.32 2 -2 2 C-1.67 2.99 -1.34 3.98 -1 5 C-3.8125 7.0625 -3.8125 7.0625 -7 9 C-7.99 8.67 -8.98 8.34 -10 8 C-8.71451591 6.66070495 -7.42141845 5.32871357 -6.125 4 C-5.04605469 2.88625 -5.04605469 2.88625 -3.9453125 1.75 C-2 0 -2 0 0 0 Z " fill="#27292E" transform="translate(130,130)"/>
<path d="M0 0 C0.99 0.33 1.98 0.66 3 1 C0.67891002 3.01465394 -1.65720733 5.01064588 -4 7 C-4.7425 7.639375 -5.485 8.27875 -6.25 8.9375 C-6.8275 9.288125 -7.405 9.63875 -8 10 C-8.99 9.67 -9.98 9.34 -11 9 C-9.23977508 7.46690087 -7.46646537 5.94881299 -5.6875 4.4375 C-4.70136719 3.59058594 -3.71523437 2.74367188 -2.69921875 1.87109375 C-1.80847656 1.25363281 -0.91773437 0.63617188 0 0 Z " fill="#D8D9DB" transform="translate(96,66)"/>
<path d="M0 0 C0 0.99 0 1.98 0 3 C1.1490712 4.2981424 1.1490712 4.2981424 4 5 C4 5.66 4 6.32 4 7 C-0.455 7.495 -0.455 7.495 -5 8 C-3.8141763 4.62496331 -2.72426311 2.35277269 0 0 Z " fill="#13161C" transform="translate(377,368)"/>
<path d="M0 0 C0.66 0 1.32 0 2 0 C2.33 0.99 2.66 1.98 3 3 C0.69 5.31 -1.62 7.62 -4 10 C-4.33 9.01 -4.66 8.02 -5 7 C-4.07421875 5.17578125 -4.07421875 5.17578125 -2.6875 3.3125 C-2.23761719 2.68988281 -1.78773438 2.06726563 -1.32421875 1.42578125 C-0.88722656 0.95527344 -0.45023437 0.48476563 0 0 Z " fill="#0D1015" transform="translate(318,321)"/>
<path d="M0 0 C0.99 0.495 0.99 0.495 2 1 C2.625 3.5625 2.625 3.5625 3 6 C3.66 6 4.32 6 5 6 C5.66 7.98 6.32 9.96 7 12 C4.5 10.6875 4.5 10.6875 2 9 C2 8.01 2 7.02 2 6 C1.34 6 0.68 6 0 6 C0 4.02 0 2.04 0 0 Z " fill="#28282E" transform="translate(321,154)"/>
<path d="M0 0 C0.66 0.33 1.32 0.66 2 1 C-3.31926121 6.76253298 -3.31926121 6.76253298 -7 7 C-9.25 6.5625 -9.25 6.5625 -11 6 C-9.35 5.67 -7.7 5.34 -6 5 C-6 4.34 -6 3.68 -6 3 C-4.03533587 1.93224776 -2.03144641 0.93446535 0 0 Z " fill="#CBCDCE" transform="translate(128,47)"/>
<path d="M0 0 C2.64 0 5.28 0 8 0 C8.33 0.99 8.66 1.98 9 3 C9.99 3 10.98 3 12 3 C12 3.66 12 4.32 12 5 C13.32 5.33 14.64 5.66 16 6 C11.64048566 6.37367266 9.63677709 5.30624889 6 3 C4.01548229 2.28856912 2.01797888 1.61008664 0 1 C0 0.67 0 0.34 0 0 Z " fill="#ADAEAF" transform="translate(136,425)"/>
<path d="M0 0 C0.99 0.33 1.98 0.66 3 1 C3 1.66 3 2.32 3 3 C5.475 3.99 5.475 3.99 8 5 C7.34 6.32 6.68 7.64 6 9 C3.69 6.69 1.38 4.38 -1 2 C-0.67 1.34 -0.34 0.68 0 0 Z " fill="#1F2024" transform="translate(344,330)"/>
<path d="M0 0 C1.22589844 0.29197266 1.22589844 0.29197266 2.4765625 0.58984375 C3.41628906 0.82380859 3.41628906 0.82380859 4.375 1.0625 C3.385 2.0525 2.395 3.0425 1.375 4.0625 C0.611875 3.7325 -0.15125 3.4025 -0.9375 3.0625 C-3.61569135 1.88813314 -3.61569135 1.88813314 -6.625 2.0625 C-6.625 1.4025 -6.625 0.7425 -6.625 0.0625 C-3.99249612 -1.25375194 -2.82320944 -0.68563658 0 0 Z " fill="#F3F3F4" transform="translate(270.625,34.9375)"/>
<path d="M0 0 C-0.99 0.495 -0.99 0.495 -2 1 C-2 1.66 -2 2.32 -2 3 C-5.46153846 6 -5.46153846 6 -8 6 C-8 4.35 -8 2.7 -8 1 C-5.07175348 0.02391783 -3.04386724 -0.08226668 0 0 Z " fill="#E8E9EC" transform="translate(352,392)"/>
<path d="M0 0 C-1.65 0.66 -3.3 1.32 -5 2 C-5 2.66 -5 3.32 -5 4 C-8.3 3.34 -11.6 2.68 -15 2 C-15 1.67 -15 1.34 -15 1 C-13.25215171 0.63536268 -11.50159498 0.2836922 -9.75 -0.0625 C-8.28820312 -0.35833984 -8.28820312 -0.35833984 -6.796875 -0.66015625 C-4.131881 -0.98397535 -2.51128277 -0.85503199 0 0 Z " fill="#C7C9C8" transform="translate(252,368)"/>
<path d="M0 0 C2.4375 0.8125 2.4375 0.8125 5 2 C5.33 2.99 5.66 3.98 6 5 C1.55129785 5.39253254 -1.14243493 4.15305957 -5 2 C-4.360625 1.855625 -3.72125 1.71125 -3.0625 1.5625 C-1.02454854 1.18992819 -1.02454854 1.18992819 0 0 Z " fill="#3C3C40" transform="translate(170,360)"/>
<path d="M0 0 C0.66 1.32 1.32 2.64 2 4 C1.01 4.33 0.02 4.66 -1 5 C-1 5.66 -1 6.32 -1 7 C-2.65 7 -4.3 7 -6 7 C-4.02 4.69 -2.04 2.38 0 0 Z " fill="#2B2B33" transform="translate(369,376)"/>
<path d="M0 0 C2 2 2 2 2.125 5.625 C2.08375 6.73875 2.0425 7.8525 2 9 C1.01 9.495 1.01 9.495 0 10 C-1.125 8.375 -1.125 8.375 -2 6 C-1.125 2.75 -1.125 2.75 0 0 Z " fill="#E0E0E2" transform="translate(27,154)"/>
<path d="M0 0 C0.66 0.33 1.32 0.66 2 1 C2 1.66 2 2.32 2 3 C2.66 3.33 3.32 3.66 4 4 C4.33 4.99 4.66 5.98 5 7 C2.03 6.01 -0.94 5.02 -4 4 C-2.68 2.68 -1.36 1.36 0 0 Z " fill="#34343A" transform="translate(158,353)"/>
<path d="M0 0 C2.6855594 2.6855594 3.06049974 5.37621328 4 9 C2.68 9 1.36 9 0 9 C-1.125 2.25 -1.125 2.25 0 0 Z " fill="#1D1E20" transform="translate(33,328)"/>
<path d="M0 0 C0.66 1.32 1.32 2.64 2 4 C1.34 4.66 0.68 5.32 0 6 C-1.32 6 -2.64 6 -4 6 C-4.33 6.99 -4.66 7.98 -5 9 C-5.66 8.67 -6.32 8.34 -7 8 C-4.69 5.36 -2.38 2.72 0 0 Z " fill="#D1D1D3" transform="translate(70,89)"/>
<path d="M0 0 C-1.49097658 3.7952131 -3.75700849 5.61042731 -7 8 C-6.65930765 4.84859577 -6.41923159 3.39218439 -4.0625 1.1875 C-2 0 -2 0 0 0 Z " fill="#12121A" transform="translate(328,315)"/>
<path d="M0 0 C3.53600465 1.91135386 5.78972846 3.62642766 8 7 C7.67 7.66 7.34 8.32 7 9 C5.82460004 8.07347299 4.65989423 7.13336613 3.5 6.1875 C2.52546875 5.40439453 2.52546875 5.40439453 1.53125 4.60546875 C0 3 0 3 0 0 Z " fill="#2E2F33" transform="translate(312,143)"/>
<path d="M0 0 C0.66 0.99 1.32 1.98 2 3 C1.25 6.625 1.25 6.625 0 10 C-0.99 10.495 -0.99 10.495 -2 11 C-1.85892253 9.54119891 -1.71197585 8.08296449 -1.5625 6.625 C-1.48128906 5.81289062 -1.40007812 5.00078125 -1.31640625 4.1640625 C-1 2 -1 2 0 0 Z " fill="#2C2D32" transform="translate(90,184)"/>
<path d="M0 0 C1.36125 0.37125 1.36125 0.37125 2.75 0.75 C2.42 1.41 2.09 2.07 1.75 2.75 C1.09 2.75 0.43 2.75 -0.25 2.75 C-0.91 3.41 -1.57 4.07 -2.25 4.75 C-2.25 4.09 -2.25 3.43 -2.25 2.75 C-3.9 3.08 -5.55 3.41 -7.25 3.75 C-4.05 -0.31153846 -4.05 -0.31153846 0 0 Z " fill="#313239" transform="translate(153.25,114.25)"/>
<path d="M0 0 C0 1.32 0 2.64 0 4 C0.66 4 1.32 4 2 4 C3.625 5.5 3.625 5.5 5 7 C4.67 7.66 4.34 8.32 4 9 C3.01 8.34 2.02 7.68 1 7 C1 6.34 1 5.68 1 5 C0.0409375 4.566875 0.0409375 4.566875 -0.9375 4.125 C-3 3 -3 3 -4 1 C-2 0 -2 0 0 0 Z " fill="#CBCBCD" transform="translate(79,384)"/>
<path d="M0 0 C2 1 2 1 2.75 2.75 C3.07158914 5.64430225 2.22746624 7.40065973 1 10 C-0.80411967 7.24075815 -1.0127245 6.11027897 -0.625 2.75 C-0.41875 1.8425 -0.2125 0.935 0 0 Z " fill="#0F0F16" transform="translate(90,272)"/>
<path d="M0 0 C0 0.99 0 1.98 0 3 C-2.81534937 5.65894107 -5.12793601 7.42636089 -9 8 C-6.14723863 5.06799526 -3.34920216 2.35684596 0 0 Z " fill="#C3C3C5" transform="translate(305,338)"/>
<path d="M0 0 C0 0.66 0 1.32 0 2 C0.66 2 1.32 2 2 2 C2 2.66 2 3.32 2 4 C-0.64 3.67 -3.28 3.34 -6 3 C-3.375 0 -3.375 0 0 0 Z " fill="#292A2F" transform="translate(278,33)"/>
<path d="M0 0 C1 2 1 2 0.1875 4.5625 C-1 7 -1 7 -3 8 C-3 7.34 -3 6.68 -3 6 C-3.66 5.67 -4.32 5.34 -5 5 C-3.35 3.35 -1.7 1.7 0 0 Z " fill="#CDCFD2" transform="translate(319,325)"/>
<path d="M0 0 C1.65 0 3.3 0 5 0 C5.66 1.32 6.32 2.64 7 4 C6.01 4.33 5.02 4.66 4 5 C2.68 3.35 1.36 1.7 0 0 Z " fill="#12131D" transform="translate(112,320)"/>
<path d="M0 0 C1.65 0 3.3 0 5 0 C4.67 1.98 4.34 3.96 4 6 C2.62437146 4.71034824 1.29233607 3.37310707 0 2 C0 1.34 0 0.68 0 0 Z " fill="#101216" transform="translate(107,312)"/>
<path d="M0 0 C0.66 0.99 1.32 1.98 2 3 C-0.31 4.98 -2.62 6.96 -5 9 C-3.7508258 5.54074837 -2.32472205 2.85306797 0 0 Z " fill="#C1C2C4" transform="translate(49,114)"/>
<path d="M0 0 C1.65 0 3.3 0 5 0 C0.25 4.875 0.25 4.875 -2 6 C-1.49396008 3.83125748 -1.00016187 2.00032373 0 0 Z " fill="#25272A" transform="translate(84,72)"/>
<path d="M0 0 C2.97 0 5.94 0 9 0 C9 0.99 9 1.98 9 3 C5.26512223 2.5020163 3.18762365 2.12508244 0 0 Z " fill="#001823" transform="translate(427,17)"/>
<path d="M0 0 C2.6875 0.875 2.6875 0.875 5 2 C3.25 3.5625 3.25 3.5625 1 5 C-1.25 4.6875 -1.25 4.6875 -3 4 C-3 3.34 -3 2.68 -3 2 C-2.01 1.34 -1.02 0.68 0 0 Z " fill="#0F1117" transform="translate(277,352)"/>
<path d="M0 0 C2 1 2 1 4 4 C4.98095748 5.01868662 5.97702078 6.02351983 7 7 C6.34 7.66 5.68 8.32 5 9 C4.67 8.01 4.34 7.02 4 6 C3.01 5.67 2.02 5.34 1 5 C0.67 3.35 0.34 1.7 0 0 Z " fill="#C2C3C4" transform="translate(36,333)"/>
<path d="M0 0 C0.33 0.99 0.66 1.98 1 3 C-1.90600261 4.25664978 -3.79604584 5 -7 5 C-2.25 0 -2.25 0 0 0 Z " fill="#CACAD0" transform="translate(329,317)"/>
<path d="M0 0 C2.97 0 5.94 0 9 0 C6 3 6 3 2.8125 3.1875 C1.4203125 3.0946875 1.4203125 3.0946875 0 3 C0 2.01 0 1.02 0 0 Z " fill="#010108" transform="translate(226,99)"/>
<path d="M0 0 C-1.375 2 -1.375 2 -3 4 C-3.66 4 -4.32 4 -5 4 C-5 3.34 -5 2.68 -5 2 C-6.32 1.67 -7.64 1.34 -9 1 C-2.25 -1.125 -2.25 -1.125 0 0 Z " fill="#424249" transform="translate(277,433)"/>
<path d="M0 0 C1.65 1.65 3.3 3.3 5 5 C3.35 5.66 1.7 6.32 0 7 C0 4.69 0 2.38 0 0 Z " fill="#202328" transform="translate(304,133)"/>
<path d="M0 0 C0.66 0.99 1.32 1.98 2 3 C1.67 3.66 1.34 4.32 1 5 C-2.0625 5.625 -2.0625 5.625 -5 6 C-3.35 4.02 -1.7 2.04 0 0 Z " fill="#D9DADC" transform="translate(76,83)"/>
</svg>
