<svg xmlns="http://www.w3.org/2000/svg" width="1024" height="768" viewBox="0 0 1024 768" version="1.1">
	<rect x="0" y="0" width="100%" height="100%" fill="#ffffff" />
	<path d="M 0 384.001 L 0 768.002 512.250 767.751 L 1024.500 767.500 1024.751 383.750 L 1025.003 0 512.501 0 L 0 0 0 384.001 M 0.495 384.500 C 0.495 595.700, 0.610 681.951, 0.750 576.169 C 0.890 470.386, 0.890 297.586, 0.750 192.169 C 0.610 86.751, 0.495 173.300, 0.495 384.500 M 528.071 281.165 C 522.500 282.765, 516.532 287.472, 514.754 291.668 C 513.862 293.776, 511.781 300.450, 510.131 306.500 C 504.194 328.269, 494.616 363.028, 486.854 390.979 C 478.080 422.572, 475.217 435.372, 474.318 447.031 C 472.923 465.124, 479.106 478.480, 491.737 484.660 C 496.452 486.967, 498.615 487.397, 505.419 487.381 C 518.881 487.348, 527.475 481.741, 533.963 468.757 C 539.193 458.293, 538.100 455.625, 528.692 455.883 C 523.080 456.038, 521.793 455.725, 519.342 453.613 C 516.669 451.309, 516.508 450.729, 516.643 443.832 C 516.760 437.865, 518.464 430.637, 525.801 405 C 548.467 325.805, 556.204 296.900, 555.597 293.691 C 553.967 285.067, 547.011 279.988, 537 280.112 C 533.975 280.150, 529.957 280.623, 528.071 281.165 M 293.849 294.388 C 288.225 295.903, 284.587 298.174, 282.372 301.555 C 281.461 302.945, 277.666 315.201, 273.939 328.791 C 270.211 342.381, 263.981 364.975, 260.094 379 C 238.314 457.585, 235.718 467.685, 236.386 471.246 C 237.248 475.839, 240.694 480.877, 244.922 483.726 L 248.296 486 296.898 485.978 C 341.438 485.957, 345.678 485.811, 347.633 484.228 C 350.918 481.567, 352 478.643, 352 472.425 C 352 465.305, 349.206 459.366, 344.262 455.975 C 340.700 453.532, 340.314 453.494, 314.289 453 C 292.320 452.583, 287.766 452.250, 286.977 451 C 284.914 447.730, 283.644 452.721, 313.622 346.297 C 323.481 311.298, 324.035 308.844, 322.970 304.889 C 320.241 294.754, 308.375 290.475, 293.849 294.388 M 587.261 308.516 C 569.220 317.647, 565.331 341.105, 580.318 350.388 C 588.956 355.738, 599.767 354.087, 608.341 346.108 C 614.671 340.219, 617.983 333.305, 617.974 326 C 617.955 310.586, 601.584 301.267, 587.261 308.516 M 656.500 320.026 C 645.007 322.346, 643.634 324.140, 637.906 344.317 L 633.313 360.500 628.036 361.039 C 622.205 361.635, 619 364.321, 619 368.611 C 619 371.857, 622.379 375, 625.869 375 L 628.737 375 627.511 380.250 C 626.836 383.137, 623.939 393.762, 621.073 403.861 C 614.624 426.587, 612.274 437.227, 611.433 447.513 C 609.937 465.801, 616.444 479.426, 629.393 485.123 C 637.069 488.501, 650.436 488.372, 658.070 484.847 C 664.635 481.816, 669.515 476.319, 673.935 466.975 C 677.536 459.364, 677.614 458.614, 675.070 456.070 C 673.235 454.235, 672.894 454.218, 668.214 455.714 C 662.453 457.557, 658.843 456.934, 655.414 453.505 C 651.660 449.751, 652.144 442.766, 657.486 423.598 C 659.954 414.744, 663.945 400.300, 666.356 391.500 L 670.740 375.500 677.769 375.208 C 683.570 374.967, 685.252 374.495, 687.399 372.506 C 690.144 369.962, 690.749 366.268, 688.965 362.934 C 688.105 361.328, 686.833 361, 681.465 361 C 677.909 361, 675.005 360.663, 675.011 360.250 C 675.018 359.837, 676.818 353.275, 679.011 345.667 C 683.879 328.785, 684.010 325.857, 680.077 321.923 C 677.291 319.137, 676.764 319.005, 668.827 319.110 C 664.247 319.170, 658.700 319.582, 656.500 320.026 M 405.500 359.550 C 386.191 364.389, 367.600 379.708, 357.547 399.062 C 350.403 412.816, 347.751 423.185, 347.715 437.500 C 347.681 451.143, 349.469 458.381, 355.009 467.014 C 367.882 487.076, 392.678 492.448, 417.654 480.587 C 435.836 471.952, 450.165 456.004, 458.100 435.567 C 470.701 403.117, 463.010 372.855, 439.350 361.783 C 433.351 358.976, 431.474 358.602, 422.060 358.340 C 415.070 358.145, 409.472 358.554, 405.500 359.550 M 739.640 364.551 C 713.072 369.831, 691.032 393.193, 681.550 426.126 C 679.311 433.902, 678.261 447.565, 679.176 457.025 C 680.038 465.947, 682.933 472.706, 688.559 478.933 C 699.849 491.431, 721.714 489.953, 737.662 475.614 L 742.745 471.044 744.442 475.486 C 748.606 486.391, 764.738 490.906, 776.852 484.558 C 782.651 481.520, 791 469.824, 791 464.740 C 791 462.668, 790.299 461.924, 787.465 460.988 C 779.129 458.237, 779.199 453.409, 788.033 421.768 C 796.576 391.171, 796.156 384.720, 784.964 374.657 C 778.320 368.684, 775.817 367.383, 766.282 364.944 C 757.575 362.717, 749.470 362.598, 739.640 364.551 M 576.589 366.118 C 571.245 367.372, 566.242 370.631, 564.505 373.989 C 563.710 375.528, 561.888 381.222, 560.455 386.643 C 558.083 395.624, 553.969 410.417, 545.896 439 C 540.578 457.828, 540.293 467.984, 544.837 476.749 C 550.735 488.126, 568.529 491.183, 579.593 482.719 C 584.172 479.217, 588.397 473.023, 589.437 468.289 C 589.983 465.803, 589.669 465.013, 587.594 463.654 C 582.802 460.514, 583.047 455.580, 589.042 434.500 C 601.402 391.039, 603.193 383.775, 602.572 379.633 C 600.824 367.978, 590.828 362.778, 576.589 366.118 M 409.420 387.885 C 400.354 393.414, 391.868 410.346, 388.509 429.609 C 386.592 440.601, 386.603 445.967, 388.552 450.839 C 392.548 460.825, 401.777 458.115, 410.617 444.361 C 422.857 425.315, 427.246 391.948, 418.150 387.080 C 415.254 385.531, 412.931 385.745, 409.420 387.885 M 737.202 394.587 C 727.727 404.369, 720.366 423.477, 719.307 441.041 C 718.675 451.536, 720.032 456.241, 724.063 457.520 C 734.665 460.885, 751.970 426.612, 751.993 402.200 C 752.002 392.776, 750.225 389, 745.781 389 C 743.248 389, 741.529 390.119, 737.202 394.587 M 297 514.877 C 297 536.243, 305.357 556.394, 320.842 572.369 C 336.193 588.205, 354.535 596.323, 375 596.337 C 395.955 596.353, 414.539 588.411, 429.821 572.911 C 445.793 556.711, 455.146 532.402, 454.124 509.750 L 454 507 444.019 507 C 432.520 507, 433.404 506.063, 432.699 519 C 431.921 533.274, 424.322 548.935, 413.275 559.031 C 390.401 579.937, 360.061 579.869, 337.599 558.861 C 325.290 547.350, 319.226 534.459, 318.140 517.500 L 317.500 507.500 307.250 507.215 L 297 506.930 297 514.877 M 564 512.435 C 564 518.894, 566.289 530.427, 569.034 537.796 C 580.828 569.461, 609.071 591.756, 642.885 596.093 C 664.012 598.802, 688.465 591.993, 705.964 578.528 C 726.326 562.859, 741 535.437, 741 513.053 L 741 507 731.117 507 C 720.016 507, 720.056 506.969, 720.002 515.500 C 719.881 534.472, 703.303 558.005, 682.944 568.107 C 662.979 578.012, 637.426 577.111, 618.165 565.821 C 615.049 563.994, 608.667 558.675, 603.982 554 C 591.598 541.643, 586.323 530.626, 584.470 513.250 L 583.804 507 573.902 507 L 564 507 564 512.435 M 640 512.020 C 640 521.017, 645.140 527, 652.870 527 C 660.251 527, 666.772 518.694, 665.839 510.482 L 665.500 507.500 652.750 507.220 L 640 506.940 640 512.020" stroke="none" fill="black" fill-rule="evenodd"/>
</svg>